G04*
G04 #@! TF.GenerationSoftware,Altium Limited,Altium Designer,25.7.1 (20)*
G04*
G04 Layer_Physical_Order=2*
G04 Layer_Color=16711680*
%FSLAX44Y44*%
%MOMM*%
G71*
G04*
G04 #@! TF.SameCoordinates,5F069EC2-A6BB-4327-AE1D-0693668E6534*
G04*
G04*
G04 #@! TF.FilePolarity,Positive*
G04*
G01*
G75*
%ADD11C,4.0000*%
G36*
X970000Y994902D02*
X971632D01*
X974869Y994476D01*
X978022Y993631D01*
X981038Y992382D01*
X983865Y990750D01*
X986454Y988762D01*
X988763Y986454D01*
X990750Y983865D01*
X992382Y981037D01*
X993631Y978022D01*
X994476Y974869D01*
X994902Y971632D01*
X994902Y970000D01*
X994902Y-970000D01*
Y-971632D01*
X994476Y-974869D01*
X993631Y-978022D01*
X992382Y-981038D01*
X990750Y-983865D01*
X988763Y-986454D01*
X986454Y-988763D01*
X983865Y-990750D01*
X981038Y-992382D01*
X978022Y-993631D01*
X974868Y-994476D01*
X971632Y-994902D01*
X970000Y-994902D01*
X-970000Y-994902D01*
X-971632D01*
X-974869Y-994476D01*
X-978022Y-993631D01*
X-981038Y-992382D01*
X-983865Y-990750D01*
X-986454Y-988763D01*
X-988763Y-986454D01*
X-990750Y-983865D01*
X-992382Y-981038D01*
X-993631Y-978022D01*
X-994476Y-974868D01*
X-994902Y-971632D01*
X-994902Y-970000D01*
D01*
X-994902Y970000D01*
Y971632D01*
X-994476Y974869D01*
X-993631Y978022D01*
X-992382Y981038D01*
X-990750Y983865D01*
X-988763Y986454D01*
X-986454Y988763D01*
X-983865Y990750D01*
X-981038Y992382D01*
X-978022Y993631D01*
X-974869Y994476D01*
X-971632Y994902D01*
X-970000Y994902D01*
X970000Y994902D01*
D02*
G37*
%LPC*%
G36*
X950000Y972649D02*
X945581Y972214D01*
X941333Y970925D01*
X937417Y968832D01*
X933985Y966015D01*
X931168Y962583D01*
X929075Y958667D01*
X927786Y954419D01*
X927351Y950000D01*
X927786Y945581D01*
X929075Y941333D01*
X931168Y937417D01*
X933985Y933985D01*
X937417Y931168D01*
X941333Y929075D01*
X945581Y927786D01*
X950000Y927351D01*
X954419Y927786D01*
X958667Y929075D01*
X962583Y931168D01*
X966015Y933985D01*
X968832Y937417D01*
X970925Y941333D01*
X972214Y945581D01*
X972649Y950000D01*
X972214Y954419D01*
X970925Y958667D01*
X968832Y962583D01*
X966015Y966015D01*
X962583Y968832D01*
X958667Y970925D01*
X954419Y972214D01*
X950000Y972649D01*
D02*
G37*
G36*
X-950000D02*
X-954419Y972214D01*
X-958667Y970925D01*
X-962583Y968832D01*
X-966015Y966015D01*
X-968832Y962583D01*
X-970925Y958667D01*
X-972214Y954419D01*
X-972649Y950000D01*
X-972214Y945581D01*
X-970925Y941333D01*
X-968832Y937417D01*
X-966015Y933985D01*
X-962583Y931168D01*
X-958667Y929075D01*
X-954419Y927786D01*
X-950000Y927351D01*
X-945581Y927786D01*
X-941333Y929075D01*
X-937417Y931168D01*
X-933985Y933985D01*
X-931168Y937417D01*
X-929075Y941333D01*
X-927786Y945581D01*
X-927351Y950000D01*
X-927786Y954419D01*
X-929075Y958667D01*
X-931168Y962583D01*
X-933985Y966015D01*
X-937417Y968832D01*
X-941333Y970925D01*
X-945581Y972214D01*
X-950000Y972649D01*
D02*
G37*
G36*
X10801Y555098D02*
X-10801D01*
X-10900Y555078D01*
X-11001Y555094D01*
X-32585Y554246D01*
X-32684Y554222D01*
X-32785Y554234D01*
X-54320Y552539D01*
X-54418Y552512D01*
X-54519Y552520D01*
X-75971Y549981D01*
X-76067Y549949D01*
X-76169Y549953D01*
X-97504Y546574D01*
X-97600Y546539D01*
X-97701D01*
X-118887Y542325D01*
X-118981Y542286D01*
X-119083Y542282D01*
X-140087Y537239D01*
X-140180Y537197D01*
X-140281Y537189D01*
X-161071Y531325D01*
X-161162Y531279D01*
X-161263Y531267D01*
X-181807Y524592D01*
X-181896Y524542D01*
X-181996Y524526D01*
X-202262Y517050D01*
X-202349Y516997D01*
X-202448Y516977D01*
X-222405Y508710D01*
X-222490Y508654D01*
X-222589Y508630D01*
X-242206Y499587D01*
X-242288Y499527D01*
X-242386Y499499D01*
X-261633Y489692D01*
X-261712Y489630D01*
X-261809Y489598D01*
X-280656Y479043D01*
X-280734Y478977D01*
X-280829Y478942D01*
X-299247Y467655D01*
X-299322Y467587D01*
X-299415Y467548D01*
X-317376Y455547D01*
X-317448Y455475D01*
X-317540Y455432D01*
X-335016Y442735D01*
X-335085Y442660D01*
X-335176Y442614D01*
X-352140Y429241D01*
X-352206Y429164D01*
X-352294Y429114D01*
X-368720Y415085D01*
X-368783Y415005D01*
X-368870Y414952D01*
X-384732Y400289D01*
X-384792Y400207D01*
X-384876Y400151D01*
X-400151Y384876D01*
X-400207Y384792D01*
X-400289Y384732D01*
X-414952Y368870D01*
X-415005Y368783D01*
X-415085Y368720D01*
X-429114Y352294D01*
X-429164Y352206D01*
X-429241Y352140D01*
X-442614Y335176D01*
X-442661Y335085D01*
X-442735Y335016D01*
X-455432Y317540D01*
X-455475Y317448D01*
X-455547Y317376D01*
X-467548Y299415D01*
X-467587Y299322D01*
X-467655Y299247D01*
X-478942Y280829D01*
X-478977Y280733D01*
X-479043Y280656D01*
X-489598Y261809D01*
X-489630Y261712D01*
X-489692Y261633D01*
X-499499Y242386D01*
X-499527Y242288D01*
X-499587Y242206D01*
X-508630Y222589D01*
X-508654Y222490D01*
X-508710Y222405D01*
X-516977Y202448D01*
X-516997Y202349D01*
X-517050Y202262D01*
X-524526Y181996D01*
X-524542Y181895D01*
X-524592Y181807D01*
X-531267Y161263D01*
X-531279Y161162D01*
X-531325Y161071D01*
X-537189Y140281D01*
X-537197Y140180D01*
X-537239Y140087D01*
X-542282Y119083D01*
X-542286Y118981D01*
X-542325Y118887D01*
X-546539Y97701D01*
Y97599D01*
X-546574Y97504D01*
X-549953Y76169D01*
X-549949Y76067D01*
X-549981Y75971D01*
X-552520Y54519D01*
X-552512Y54418D01*
X-552539Y54320D01*
X-554234Y32785D01*
X-554222Y32684D01*
X-554246Y32585D01*
X-555094Y11001D01*
X-555078Y10900D01*
X-555098Y10801D01*
Y0D01*
X-555098Y-10801D01*
X-555078Y-10900D01*
X-555094Y-11001D01*
X-554246Y-32585D01*
X-554222Y-32684D01*
X-554234Y-32785D01*
X-552539Y-54320D01*
X-552512Y-54418D01*
X-552520Y-54519D01*
X-549981Y-75971D01*
X-549949Y-76067D01*
X-549953Y-76169D01*
X-546574Y-97504D01*
X-546539Y-97600D01*
Y-97701D01*
X-542325Y-118887D01*
X-542286Y-118981D01*
X-542282Y-119083D01*
X-537239Y-140087D01*
X-537197Y-140180D01*
X-537189Y-140281D01*
X-531325Y-161071D01*
X-531279Y-161162D01*
X-531267Y-161263D01*
X-524592Y-181807D01*
X-524542Y-181896D01*
X-524526Y-181996D01*
X-517050Y-202262D01*
X-516997Y-202349D01*
X-516977Y-202448D01*
X-508710Y-222405D01*
X-508654Y-222490D01*
X-508630Y-222589D01*
X-499587Y-242206D01*
X-499527Y-242288D01*
X-499499Y-242386D01*
X-489692Y-261633D01*
X-489630Y-261712D01*
X-489598Y-261809D01*
X-479043Y-280656D01*
X-478977Y-280734D01*
X-478942Y-280829D01*
X-467655Y-299247D01*
X-467587Y-299322D01*
X-467548Y-299415D01*
X-455547Y-317376D01*
X-455475Y-317448D01*
X-455432Y-317540D01*
X-442735Y-335016D01*
X-442661Y-335085D01*
X-442614Y-335176D01*
X-429241Y-352140D01*
X-429164Y-352206D01*
X-429114Y-352294D01*
X-415085Y-368720D01*
X-415005Y-368783D01*
X-414952Y-368870D01*
X-400289Y-384732D01*
X-400207Y-384792D01*
X-400151Y-384876D01*
X-384876Y-400151D01*
X-384792Y-400207D01*
X-384732Y-400289D01*
X-368870Y-414952D01*
X-368783Y-415005D01*
X-368720Y-415085D01*
X-352294Y-429114D01*
X-352206Y-429164D01*
X-352140Y-429241D01*
X-335176Y-442614D01*
X-335085Y-442661D01*
X-335016Y-442735D01*
X-317540Y-455432D01*
X-317448Y-455475D01*
X-317376Y-455547D01*
X-299415Y-467548D01*
X-299322Y-467587D01*
X-299247Y-467655D01*
X-280829Y-478942D01*
X-280734Y-478977D01*
X-280656Y-479043D01*
X-261809Y-489598D01*
X-261712Y-489630D01*
X-261633Y-489692D01*
X-242386Y-499499D01*
X-242288Y-499527D01*
X-242206Y-499587D01*
X-222589Y-508630D01*
X-222490Y-508654D01*
X-222405Y-508710D01*
X-202448Y-516977D01*
X-202349Y-516997D01*
X-202262Y-517050D01*
X-181996Y-524526D01*
X-181895Y-524542D01*
X-181807Y-524592D01*
X-161263Y-531267D01*
X-161162Y-531279D01*
X-161071Y-531325D01*
X-140281Y-537189D01*
X-140180Y-537197D01*
X-140087Y-537239D01*
X-119083Y-542282D01*
X-118981Y-542286D01*
X-118887Y-542325D01*
X-97701Y-546539D01*
X-97599D01*
X-97504Y-546574D01*
X-76169Y-549953D01*
X-76067Y-549949D01*
X-75971Y-549981D01*
X-54519Y-552520D01*
X-54418Y-552512D01*
X-54320Y-552539D01*
X-32785Y-554234D01*
X-32684Y-554222D01*
X-32585Y-554246D01*
X-11001Y-555094D01*
X-10900Y-555078D01*
X-10801Y-555098D01*
X10801D01*
X10900Y-555078D01*
X11001Y-555094D01*
X32585Y-554246D01*
X32684Y-554222D01*
X32785Y-554234D01*
X54320Y-552539D01*
X54418Y-552512D01*
X54519Y-552520D01*
X75971Y-549981D01*
X76067Y-549949D01*
X76169Y-549953D01*
X97504Y-546574D01*
X97599Y-546539D01*
X97701D01*
X118887Y-542325D01*
X118981Y-542286D01*
X119083Y-542282D01*
X140087Y-537239D01*
X140180Y-537197D01*
X140281Y-537189D01*
X161071Y-531325D01*
X161162Y-531279D01*
X161263Y-531267D01*
X181807Y-524592D01*
X181895Y-524542D01*
X181996Y-524526D01*
X202262Y-517050D01*
X202349Y-516997D01*
X202448Y-516977D01*
X222405Y-508710D01*
X222490Y-508654D01*
X222589Y-508630D01*
X242206Y-499587D01*
X242288Y-499527D01*
X242386Y-499499D01*
X261633Y-489692D01*
X261712Y-489630D01*
X261809Y-489598D01*
X280656Y-479043D01*
X280733Y-478977D01*
X280829Y-478942D01*
X299247Y-467655D01*
X299322Y-467587D01*
X299415Y-467548D01*
X317376Y-455547D01*
X317448Y-455475D01*
X317540Y-455432D01*
X335016Y-442735D01*
X335085Y-442661D01*
X335176Y-442614D01*
X352140Y-429241D01*
X352206Y-429164D01*
X352294Y-429114D01*
X368720Y-415085D01*
X368783Y-415005D01*
X368870Y-414952D01*
X384732Y-400289D01*
X384792Y-400207D01*
X384876Y-400151D01*
X400151Y-384876D01*
X400207Y-384792D01*
X400289Y-384732D01*
X414952Y-368870D01*
X415005Y-368783D01*
X415085Y-368720D01*
X429114Y-352294D01*
X429164Y-352206D01*
X429241Y-352140D01*
X442614Y-335176D01*
X442661Y-335085D01*
X442735Y-335016D01*
X455432Y-317540D01*
X455475Y-317448D01*
X455547Y-317376D01*
X467548Y-299415D01*
X467587Y-299322D01*
X467655Y-299247D01*
X478942Y-280829D01*
X478977Y-280734D01*
X479043Y-280656D01*
X489598Y-261809D01*
X489630Y-261712D01*
X489692Y-261633D01*
X499499Y-242386D01*
X499527Y-242288D01*
X499587Y-242206D01*
X508630Y-222589D01*
X508654Y-222490D01*
X508710Y-222405D01*
X516977Y-202448D01*
X516997Y-202349D01*
X517050Y-202262D01*
X524526Y-181996D01*
X524542Y-181895D01*
X524592Y-181807D01*
X531267Y-161263D01*
X531279Y-161162D01*
X531325Y-161071D01*
X537189Y-140281D01*
X537197Y-140180D01*
X537239Y-140087D01*
X542282Y-119083D01*
X542286Y-118981D01*
X542325Y-118887D01*
X546539Y-97701D01*
Y-97599D01*
X546574Y-97504D01*
X549953Y-76169D01*
X549949Y-76067D01*
X549981Y-75971D01*
X552520Y-54519D01*
X552512Y-54418D01*
X552539Y-54320D01*
X554234Y-32785D01*
X554222Y-32684D01*
X554246Y-32585D01*
X555094Y-11001D01*
X555078Y-10900D01*
X555098Y-10801D01*
Y0D01*
Y10801D01*
X555078Y10900D01*
X555094Y11001D01*
X554246Y32585D01*
X554222Y32684D01*
X554234Y32785D01*
X552539Y54320D01*
X552512Y54418D01*
X552520Y54519D01*
X549981Y75971D01*
X549949Y76067D01*
X549953Y76169D01*
X546574Y97504D01*
X546539Y97599D01*
Y97701D01*
X542325Y118887D01*
X542286Y118981D01*
X542282Y119083D01*
X537239Y140087D01*
X537197Y140180D01*
X537189Y140281D01*
X531325Y161071D01*
X531279Y161162D01*
X531267Y161263D01*
X524592Y181807D01*
X524542Y181895D01*
X524526Y181996D01*
X517050Y202262D01*
X516997Y202349D01*
X516977Y202448D01*
X508710Y222405D01*
X508654Y222490D01*
X508630Y222589D01*
X499587Y242206D01*
X499527Y242288D01*
X499499Y242386D01*
X489692Y261633D01*
X489630Y261712D01*
X489598Y261809D01*
X479043Y280656D01*
X478977Y280733D01*
X478942Y280829D01*
X467655Y299247D01*
X467587Y299322D01*
X467548Y299415D01*
X455547Y317376D01*
X455475Y317448D01*
X455432Y317540D01*
X442735Y335016D01*
X442660Y335085D01*
X442614Y335176D01*
X429241Y352140D01*
X429164Y352206D01*
X429114Y352294D01*
X415085Y368720D01*
X415005Y368783D01*
X414952Y368870D01*
X400289Y384732D01*
X400207Y384792D01*
X400151Y384876D01*
X384876Y400151D01*
X384792Y400207D01*
X384732Y400289D01*
X368870Y414952D01*
X368783Y415005D01*
X368720Y415085D01*
X352294Y429114D01*
X352206Y429164D01*
X352140Y429241D01*
X335176Y442614D01*
X335085Y442661D01*
X335016Y442735D01*
X317540Y455432D01*
X317448Y455475D01*
X317376Y455547D01*
X299415Y467548D01*
X299322Y467587D01*
X299247Y467655D01*
X280829Y478942D01*
X280733Y478977D01*
X280656Y479043D01*
X261809Y489598D01*
X261712Y489630D01*
X261633Y489692D01*
X242386Y499499D01*
X242288Y499527D01*
X242206Y499587D01*
X222589Y508630D01*
X222490Y508654D01*
X222405Y508710D01*
X202448Y516977D01*
X202349Y516997D01*
X202262Y517050D01*
X181996Y524526D01*
X181895Y524542D01*
X181807Y524592D01*
X161263Y531267D01*
X161162Y531279D01*
X161071Y531325D01*
X140281Y537189D01*
X140180Y537197D01*
X140087Y537239D01*
X119083Y542282D01*
X118981Y542286D01*
X118887Y542325D01*
X97701Y546539D01*
X97599D01*
X97504Y546574D01*
X76169Y549953D01*
X76067Y549949D01*
X75971Y549981D01*
X54519Y552520D01*
X54418Y552512D01*
X54320Y552539D01*
X32785Y554234D01*
X32684Y554222D01*
X32585Y554246D01*
X11001Y555094D01*
X10900Y555078D01*
X10801Y555098D01*
D02*
G37*
G36*
X525000Y547649D02*
X520581Y547214D01*
X516333Y545925D01*
X512417Y543832D01*
X508985Y541015D01*
X506168Y537583D01*
X504075Y533667D01*
X502786Y529419D01*
X502351Y525000D01*
X502786Y520581D01*
X504075Y516333D01*
X506168Y512417D01*
X508985Y508985D01*
X512417Y506168D01*
X516333Y504075D01*
X520581Y502786D01*
X525000Y502351D01*
X529419Y502786D01*
X533667Y504075D01*
X537583Y506168D01*
X541015Y508985D01*
X543832Y512417D01*
X545925Y516333D01*
X547214Y520581D01*
X547649Y525000D01*
X547214Y529419D01*
X545925Y533667D01*
X543832Y537583D01*
X541015Y541015D01*
X537583Y543832D01*
X533667Y545925D01*
X529419Y547214D01*
X525000Y547649D01*
D02*
G37*
G36*
X-525000D02*
X-529419Y547214D01*
X-533667Y545925D01*
X-537583Y543832D01*
X-541015Y541015D01*
X-543832Y537583D01*
X-545925Y533667D01*
X-547214Y529419D01*
X-547649Y525000D01*
X-547214Y520581D01*
X-545925Y516333D01*
X-543832Y512417D01*
X-541015Y508985D01*
X-537583Y506168D01*
X-533667Y504075D01*
X-529419Y502786D01*
X-525000Y502351D01*
X-520581Y502786D01*
X-516333Y504075D01*
X-512417Y506168D01*
X-508985Y508985D01*
X-506168Y512417D01*
X-504075Y516333D01*
X-502786Y520581D01*
X-502351Y525000D01*
X-502786Y529419D01*
X-504075Y533667D01*
X-506168Y537583D01*
X-508985Y541015D01*
X-512417Y543832D01*
X-516333Y545925D01*
X-520581Y547214D01*
X-525000Y547649D01*
D02*
G37*
G36*
X950000Y497649D02*
X945581Y497214D01*
X941333Y495925D01*
X937417Y493832D01*
X933985Y491015D01*
X931168Y487583D01*
X929075Y483667D01*
X927786Y479419D01*
X927351Y475000D01*
X927786Y470581D01*
X929075Y466333D01*
X931168Y462417D01*
X933985Y458985D01*
X937417Y456168D01*
X941333Y454075D01*
X945581Y452786D01*
X950000Y452351D01*
X954419Y452786D01*
X958667Y454075D01*
X962583Y456168D01*
X966015Y458985D01*
X968832Y462417D01*
X970925Y466333D01*
X972214Y470581D01*
X972649Y475000D01*
X972214Y479419D01*
X970925Y483667D01*
X968832Y487583D01*
X966015Y491015D01*
X962583Y493832D01*
X958667Y495925D01*
X954419Y497214D01*
X950000Y497649D01*
D02*
G37*
G36*
X-950000D02*
X-954419Y497214D01*
X-958667Y495925D01*
X-962583Y493832D01*
X-966015Y491015D01*
X-968832Y487583D01*
X-970925Y483667D01*
X-972214Y479419D01*
X-972649Y475000D01*
X-972214Y470581D01*
X-970925Y466333D01*
X-968832Y462417D01*
X-966015Y458985D01*
X-962583Y456168D01*
X-958667Y454075D01*
X-954419Y452786D01*
X-950000Y452351D01*
X-945581Y452786D01*
X-941333Y454075D01*
X-937417Y456168D01*
X-933985Y458985D01*
X-931168Y462417D01*
X-929075Y466333D01*
X-927786Y470581D01*
X-927351Y475000D01*
X-927786Y479419D01*
X-929075Y483667D01*
X-931168Y487583D01*
X-933985Y491015D01*
X-937417Y493832D01*
X-941333Y495925D01*
X-945581Y497214D01*
X-950000Y497649D01*
D02*
G37*
G36*
X950000Y22649D02*
X945581Y22214D01*
X941333Y20925D01*
X937417Y18832D01*
X933985Y16015D01*
X931168Y12583D01*
X929075Y8667D01*
X927786Y4419D01*
X927351Y0D01*
X927786Y-4419D01*
X929075Y-8667D01*
X931168Y-12583D01*
X933985Y-16015D01*
X937417Y-18832D01*
X941333Y-20925D01*
X945581Y-22214D01*
X950000Y-22649D01*
X954419Y-22214D01*
X958667Y-20925D01*
X962583Y-18832D01*
X966015Y-16015D01*
X968832Y-12583D01*
X970925Y-8667D01*
X972214Y-4419D01*
X972649Y0D01*
X972214Y4419D01*
X970925Y8667D01*
X968832Y12583D01*
X966015Y16015D01*
X962583Y18832D01*
X958667Y20925D01*
X954419Y22214D01*
X950000Y22649D01*
D02*
G37*
G36*
X-950000D02*
X-954419Y22214D01*
X-958667Y20925D01*
X-962583Y18832D01*
X-966015Y16015D01*
X-968832Y12583D01*
X-970925Y8667D01*
X-972214Y4419D01*
X-972649Y0D01*
X-972214Y-4419D01*
X-970925Y-8667D01*
X-968832Y-12583D01*
X-966015Y-16015D01*
X-962583Y-18832D01*
X-958667Y-20925D01*
X-954419Y-22214D01*
X-950000Y-22649D01*
X-945581Y-22214D01*
X-941333Y-20925D01*
X-937417Y-18832D01*
X-933985Y-16015D01*
X-931168Y-12583D01*
X-929075Y-8667D01*
X-927786Y-4419D01*
X-927351Y0D01*
X-927786Y4419D01*
X-929075Y8667D01*
X-931168Y12583D01*
X-933985Y16015D01*
X-937417Y18832D01*
X-941333Y20925D01*
X-945581Y22214D01*
X-950000Y22649D01*
D02*
G37*
G36*
X950000Y-452351D02*
X945581Y-452786D01*
X941333Y-454075D01*
X937417Y-456168D01*
X933985Y-458985D01*
X931168Y-462417D01*
X929075Y-466333D01*
X927786Y-470581D01*
X927351Y-475000D01*
X927786Y-479419D01*
X929075Y-483667D01*
X931168Y-487583D01*
X933985Y-491015D01*
X937417Y-493832D01*
X941333Y-495925D01*
X945581Y-497214D01*
X950000Y-497649D01*
X954419Y-497214D01*
X958667Y-495925D01*
X962583Y-493832D01*
X966015Y-491015D01*
X968832Y-487583D01*
X970925Y-483667D01*
X972214Y-479419D01*
X972649Y-475000D01*
X972214Y-470581D01*
X970925Y-466333D01*
X968832Y-462417D01*
X966015Y-458985D01*
X962583Y-456168D01*
X958667Y-454075D01*
X954419Y-452786D01*
X950000Y-452351D01*
D02*
G37*
G36*
X-950000D02*
X-954419Y-452786D01*
X-958667Y-454075D01*
X-962583Y-456168D01*
X-966015Y-458985D01*
X-968832Y-462417D01*
X-970925Y-466333D01*
X-972214Y-470581D01*
X-972649Y-475000D01*
X-972214Y-479419D01*
X-970925Y-483667D01*
X-968832Y-487583D01*
X-966015Y-491015D01*
X-962583Y-493832D01*
X-958667Y-495925D01*
X-954419Y-497214D01*
X-950000Y-497649D01*
X-945581Y-497214D01*
X-941333Y-495925D01*
X-937417Y-493832D01*
X-933985Y-491015D01*
X-931168Y-487583D01*
X-929075Y-483667D01*
X-927786Y-479419D01*
X-927351Y-475000D01*
X-927786Y-470581D01*
X-929075Y-466333D01*
X-931168Y-462417D01*
X-933985Y-458985D01*
X-937417Y-456168D01*
X-941333Y-454075D01*
X-945581Y-452786D01*
X-950000Y-452351D01*
D02*
G37*
G36*
X525000Y-502351D02*
X520581Y-502786D01*
X516333Y-504075D01*
X512417Y-506168D01*
X508985Y-508985D01*
X506168Y-512417D01*
X504075Y-516333D01*
X502786Y-520581D01*
X502351Y-525000D01*
X502786Y-529419D01*
X504075Y-533667D01*
X506168Y-537583D01*
X508985Y-541015D01*
X512417Y-543832D01*
X516333Y-545925D01*
X520581Y-547214D01*
X525000Y-547649D01*
X529419Y-547214D01*
X533667Y-545925D01*
X537583Y-543832D01*
X541015Y-541015D01*
X543832Y-537583D01*
X545925Y-533667D01*
X547214Y-529419D01*
X547649Y-525000D01*
X547214Y-520581D01*
X545925Y-516333D01*
X543832Y-512417D01*
X541015Y-508985D01*
X537583Y-506168D01*
X533667Y-504075D01*
X529419Y-502786D01*
X525000Y-502351D01*
D02*
G37*
G36*
X-525000D02*
X-529419Y-502786D01*
X-533667Y-504075D01*
X-537583Y-506168D01*
X-541015Y-508985D01*
X-543832Y-512417D01*
X-545925Y-516333D01*
X-547214Y-520581D01*
X-547649Y-525000D01*
X-547214Y-529419D01*
X-545925Y-533667D01*
X-543832Y-537583D01*
X-541015Y-541015D01*
X-537583Y-543832D01*
X-533667Y-545925D01*
X-529419Y-547214D01*
X-525000Y-547649D01*
X-520581Y-547214D01*
X-516333Y-545925D01*
X-512417Y-543832D01*
X-508985Y-541015D01*
X-506168Y-537583D01*
X-504075Y-533667D01*
X-502786Y-529419D01*
X-502351Y-525000D01*
X-502786Y-520581D01*
X-504075Y-516333D01*
X-506168Y-512417D01*
X-508985Y-508985D01*
X-512417Y-506168D01*
X-516333Y-504075D01*
X-520581Y-502786D01*
X-525000Y-502351D01*
D02*
G37*
G36*
X950000Y-927351D02*
X945581Y-927786D01*
X941333Y-929075D01*
X937417Y-931168D01*
X933985Y-933985D01*
X931168Y-937417D01*
X929075Y-941333D01*
X927786Y-945581D01*
X927351Y-950000D01*
X927786Y-954419D01*
X929075Y-958667D01*
X931168Y-962583D01*
X933985Y-966015D01*
X937417Y-968832D01*
X941333Y-970925D01*
X945581Y-972214D01*
X950000Y-972649D01*
X954419Y-972214D01*
X958667Y-970925D01*
X962583Y-968832D01*
X966015Y-966015D01*
X968832Y-962583D01*
X970925Y-958667D01*
X972214Y-954419D01*
X972649Y-950000D01*
X972214Y-945581D01*
X970925Y-941333D01*
X968832Y-937417D01*
X966015Y-933985D01*
X962583Y-931168D01*
X958667Y-929075D01*
X954419Y-927786D01*
X950000Y-927351D01*
D02*
G37*
G36*
X-950000D02*
X-954419Y-927786D01*
X-958667Y-929075D01*
X-962583Y-931168D01*
X-966015Y-933985D01*
X-968832Y-937417D01*
X-970925Y-941333D01*
X-972214Y-945581D01*
X-972649Y-950000D01*
X-972214Y-954419D01*
X-970925Y-958667D01*
X-968832Y-962583D01*
X-966015Y-966015D01*
X-962583Y-968832D01*
X-958667Y-970925D01*
X-954419Y-972214D01*
X-950000Y-972649D01*
X-945581Y-972214D01*
X-941333Y-970925D01*
X-937417Y-968832D01*
X-933985Y-966015D01*
X-931168Y-962583D01*
X-929075Y-958667D01*
X-927786Y-954419D01*
X-927351Y-950000D01*
X-927786Y-945581D01*
X-929075Y-941333D01*
X-931168Y-937417D01*
X-933985Y-933985D01*
X-937417Y-931168D01*
X-941333Y-929075D01*
X-945581Y-927786D01*
X-950000Y-927351D01*
D02*
G37*
%LPD*%
D11*
X950000Y-475000D02*
D03*
X-950000D02*
D03*
X-525000Y-525000D02*
D03*
X525000D02*
D03*
Y525000D02*
D03*
X-525000D02*
D03*
X-950000Y475000D02*
D03*
X950000D02*
D03*
Y0D02*
D03*
X-950000D02*
D03*
Y-950000D02*
D03*
X950000D02*
D03*
Y950000D02*
D03*
X-950000D02*
D03*
M02*
