G04*
G04 #@! TF.GenerationSoftware,Altium Limited,Altium Designer,25.7.1 (20)*
G04*
G04 Layer_Physical_Order=2*
G04 Layer_Color=16711680*
%FSLAX44Y44*%
%MOMM*%
G71*
G04*
G04 #@! TF.SameCoordinates,4ED686BE-EAE9-4F8A-9F21-0B2D34900B11*
G04*
G04*
G04 #@! TF.FilePolarity,Positive*
G04*
G01*
G75*
%ADD11C,4.0000*%
G36*
X970000Y994902D02*
X971632D01*
X974869Y994476D01*
X978022Y993631D01*
X981038Y992382D01*
X983865Y990750D01*
X986454Y988762D01*
X988763Y986454D01*
X990750Y983865D01*
X992382Y981037D01*
X993631Y978022D01*
X994476Y974869D01*
X994902Y971632D01*
X994902Y970000D01*
X994902Y-970000D01*
Y-971632D01*
X994476Y-974869D01*
X993631Y-978022D01*
X992382Y-981038D01*
X990750Y-983865D01*
X988763Y-986454D01*
X986454Y-988763D01*
X983865Y-990750D01*
X981038Y-992382D01*
X978022Y-993631D01*
X974868Y-994476D01*
X971632Y-994902D01*
X970000Y-994902D01*
X-970000Y-994902D01*
X-971632D01*
X-974869Y-994476D01*
X-978022Y-993631D01*
X-981038Y-992382D01*
X-983865Y-990750D01*
X-986454Y-988763D01*
X-988763Y-986454D01*
X-990750Y-983865D01*
X-992382Y-981038D01*
X-993631Y-978022D01*
X-994476Y-974868D01*
X-994902Y-971632D01*
X-994902Y-970000D01*
D01*
X-994902Y970000D01*
Y971632D01*
X-994476Y974869D01*
X-993631Y978022D01*
X-992382Y981038D01*
X-990750Y983865D01*
X-988763Y986454D01*
X-986454Y988763D01*
X-983865Y990750D01*
X-981038Y992382D01*
X-978022Y993631D01*
X-974869Y994476D01*
X-971632Y994902D01*
X-970000Y994902D01*
X970000Y994902D01*
D02*
G37*
%LPC*%
G36*
X950000Y972649D02*
X945581Y972214D01*
X941333Y970925D01*
X937417Y968832D01*
X933985Y966015D01*
X931168Y962583D01*
X929075Y958667D01*
X927786Y954419D01*
X927351Y950000D01*
X927786Y945581D01*
X929075Y941333D01*
X931168Y937417D01*
X933985Y933985D01*
X937417Y931168D01*
X941333Y929075D01*
X945581Y927786D01*
X950000Y927351D01*
X954419Y927786D01*
X958667Y929075D01*
X962583Y931168D01*
X966015Y933985D01*
X968832Y937417D01*
X970925Y941333D01*
X972214Y945581D01*
X972649Y950000D01*
X972214Y954419D01*
X970925Y958667D01*
X968832Y962583D01*
X966015Y966015D01*
X962583Y968832D01*
X958667Y970925D01*
X954419Y972214D01*
X950000Y972649D01*
D02*
G37*
G36*
X-950000D02*
X-954419Y972214D01*
X-958667Y970925D01*
X-962583Y968832D01*
X-966015Y966015D01*
X-968832Y962583D01*
X-970925Y958667D01*
X-972214Y954419D01*
X-972649Y950000D01*
X-972214Y945581D01*
X-970925Y941333D01*
X-968832Y937417D01*
X-966015Y933985D01*
X-962583Y931168D01*
X-958667Y929075D01*
X-954419Y927786D01*
X-950000Y927351D01*
X-945581Y927786D01*
X-941333Y929075D01*
X-937417Y931168D01*
X-933985Y933985D01*
X-931168Y937417D01*
X-929075Y941333D01*
X-927786Y945581D01*
X-927351Y950000D01*
X-927786Y954419D01*
X-929075Y958667D01*
X-931168Y962583D01*
X-933985Y966015D01*
X-937417Y968832D01*
X-941333Y970925D01*
X-945581Y972214D01*
X-950000Y972649D01*
D02*
G37*
G36*
X12764Y655098D02*
X-12764D01*
X-12864Y655078D01*
X-12965Y655094D01*
X-38474Y654092D01*
X-38572Y654068D01*
X-38673Y654080D01*
X-64123Y652077D01*
X-64221Y652049D01*
X-64323Y652057D01*
X-89674Y649057D01*
X-89771Y649025D01*
X-89873Y649029D01*
X-115087Y645036D01*
X-115183Y645001D01*
X-115284D01*
X-140322Y640020D01*
X-140416Y639981D01*
X-140518Y639977D01*
X-165341Y634018D01*
X-165434Y633975D01*
X-165535Y633967D01*
X-190105Y627038D01*
X-190196Y626992D01*
X-190297Y626980D01*
X-214576Y619091D01*
X-214665Y619041D01*
X-214765Y619025D01*
X-238716Y610189D01*
X-238803Y610136D01*
X-238902Y610116D01*
X-262488Y600347D01*
X-262572Y600290D01*
X-262671Y600267D01*
X-285855Y589579D01*
X-285937Y589519D01*
X-286035Y589491D01*
X-308781Y577902D01*
X-308861Y577839D01*
X-308958Y577807D01*
X-331232Y565333D01*
X-331309Y565267D01*
X-331404Y565232D01*
X-353171Y551894D01*
X-353246Y551824D01*
X-353340Y551786D01*
X-374566Y537603D01*
X-374638Y537531D01*
X-374730Y537488D01*
X-395383Y522483D01*
X-395452Y522408D01*
X-395543Y522362D01*
X-415591Y506557D01*
X-415657Y506480D01*
X-415746Y506430D01*
X-435158Y489851D01*
X-435221Y489771D01*
X-435308Y489718D01*
X-454054Y472389D01*
X-454114Y472306D01*
X-454198Y472250D01*
X-472250Y454198D01*
X-472306Y454114D01*
X-472389Y454054D01*
X-489718Y435308D01*
X-489771Y435221D01*
X-489851Y435158D01*
X-506430Y415746D01*
X-506480Y415657D01*
X-506557Y415591D01*
X-522362Y395543D01*
X-522408Y395452D01*
X-522483Y395383D01*
X-537488Y374730D01*
X-537531Y374638D01*
X-537603Y374566D01*
X-551786Y353340D01*
X-551824Y353246D01*
X-551894Y353171D01*
X-565232Y331404D01*
X-565267Y331309D01*
X-565333Y331232D01*
X-577807Y308958D01*
X-577839Y308861D01*
X-577902Y308781D01*
X-589492Y286035D01*
X-589519Y285937D01*
X-589579Y285855D01*
X-600267Y262671D01*
X-600290Y262572D01*
X-600347Y262488D01*
X-610116Y238902D01*
X-610136Y238803D01*
X-610189Y238716D01*
X-619025Y214765D01*
X-619041Y214665D01*
X-619091Y214576D01*
X-626980Y190297D01*
X-626992Y190196D01*
X-627038Y190105D01*
X-633967Y165535D01*
X-633975Y165434D01*
X-634018Y165341D01*
X-639977Y140518D01*
X-639981Y140416D01*
X-640020Y140322D01*
X-645001Y115284D01*
Y115183D01*
X-645036Y115087D01*
X-649029Y89873D01*
X-649025Y89771D01*
X-649057Y89674D01*
X-652057Y64323D01*
X-652049Y64221D01*
X-652077Y64123D01*
X-654080Y38673D01*
X-654068Y38572D01*
X-654092Y38473D01*
X-655094Y12965D01*
X-655078Y12864D01*
X-655098Y12764D01*
Y0D01*
X-655098Y-12764D01*
X-655078Y-12864D01*
X-655094Y-12965D01*
X-654092Y-38474D01*
X-654068Y-38572D01*
X-654080Y-38673D01*
X-652077Y-64123D01*
X-652049Y-64221D01*
X-652057Y-64323D01*
X-649057Y-89674D01*
X-649025Y-89771D01*
X-649029Y-89873D01*
X-645036Y-115087D01*
X-645001Y-115183D01*
Y-115284D01*
X-640020Y-140322D01*
X-639981Y-140416D01*
X-639977Y-140518D01*
X-634018Y-165341D01*
X-633975Y-165434D01*
X-633967Y-165535D01*
X-627038Y-190105D01*
X-626992Y-190196D01*
X-626980Y-190297D01*
X-619091Y-214576D01*
X-619041Y-214665D01*
X-619025Y-214765D01*
X-610189Y-238716D01*
X-610136Y-238803D01*
X-610116Y-238902D01*
X-600347Y-262488D01*
X-600290Y-262572D01*
X-600267Y-262671D01*
X-589579Y-285855D01*
X-589519Y-285937D01*
X-589492Y-286035D01*
X-577902Y-308781D01*
X-577839Y-308861D01*
X-577807Y-308958D01*
X-565333Y-331232D01*
X-565267Y-331309D01*
X-565232Y-331404D01*
X-551894Y-353171D01*
X-551824Y-353246D01*
X-551786Y-353340D01*
X-537603Y-374566D01*
X-537531Y-374638D01*
X-537488Y-374730D01*
X-522483Y-395383D01*
X-522408Y-395452D01*
X-522362Y-395543D01*
X-506557Y-415591D01*
X-506480Y-415657D01*
X-506430Y-415746D01*
X-489851Y-435158D01*
X-489771Y-435221D01*
X-489718Y-435308D01*
X-472389Y-454054D01*
X-472307Y-454114D01*
X-472250Y-454198D01*
X-454198Y-472250D01*
X-454114Y-472306D01*
X-454054Y-472389D01*
X-435308Y-489718D01*
X-435221Y-489771D01*
X-435158Y-489851D01*
X-415746Y-506430D01*
X-415657Y-506480D01*
X-415591Y-506557D01*
X-395543Y-522362D01*
X-395452Y-522408D01*
X-395383Y-522483D01*
X-374730Y-537488D01*
X-374638Y-537531D01*
X-374566Y-537603D01*
X-353340Y-551786D01*
X-353246Y-551824D01*
X-353171Y-551894D01*
X-331404Y-565232D01*
X-331309Y-565267D01*
X-331232Y-565333D01*
X-308958Y-577807D01*
X-308861Y-577839D01*
X-308781Y-577902D01*
X-286035Y-589492D01*
X-285937Y-589519D01*
X-285855Y-589579D01*
X-262671Y-600267D01*
X-262572Y-600290D01*
X-262488Y-600347D01*
X-238902Y-610116D01*
X-238803Y-610136D01*
X-238716Y-610189D01*
X-214765Y-619025D01*
X-214665Y-619041D01*
X-214576Y-619091D01*
X-190297Y-626980D01*
X-190196Y-626992D01*
X-190105Y-627038D01*
X-165535Y-633967D01*
X-165434Y-633975D01*
X-165341Y-634018D01*
X-140518Y-639977D01*
X-140416Y-639981D01*
X-140322Y-640020D01*
X-115284Y-645001D01*
X-115183D01*
X-115087Y-645036D01*
X-89873Y-649029D01*
X-89771Y-649025D01*
X-89674Y-649057D01*
X-64323Y-652057D01*
X-64221Y-652049D01*
X-64123Y-652077D01*
X-38673Y-654080D01*
X-38572Y-654068D01*
X-38474Y-654092D01*
X-12965Y-655094D01*
X-12864Y-655078D01*
X-12764Y-655098D01*
X-0D01*
X12764Y-655098D01*
X12864Y-655078D01*
X12965Y-655094D01*
X38473Y-654092D01*
X38572Y-654068D01*
X38673Y-654080D01*
X64123Y-652077D01*
X64221Y-652049D01*
X64323Y-652057D01*
X89674Y-649057D01*
X89771Y-649025D01*
X89873Y-649029D01*
X115087Y-645036D01*
X115183Y-645001D01*
X115284D01*
X140322Y-640020D01*
X140416Y-639981D01*
X140518Y-639977D01*
X165341Y-634018D01*
X165434Y-633975D01*
X165535Y-633967D01*
X190105Y-627038D01*
X190196Y-626992D01*
X190297Y-626980D01*
X214576Y-619091D01*
X214665Y-619041D01*
X214765Y-619025D01*
X238716Y-610189D01*
X238803Y-610136D01*
X238902Y-610116D01*
X262488Y-600347D01*
X262572Y-600290D01*
X262671Y-600267D01*
X285855Y-589579D01*
X285937Y-589519D01*
X286035Y-589492D01*
X308781Y-577902D01*
X308861Y-577839D01*
X308958Y-577807D01*
X331232Y-565333D01*
X331309Y-565267D01*
X331404Y-565232D01*
X353171Y-551894D01*
X353246Y-551824D01*
X353340Y-551786D01*
X374566Y-537603D01*
X374638Y-537531D01*
X374730Y-537488D01*
X395383Y-522483D01*
X395452Y-522408D01*
X395543Y-522362D01*
X415591Y-506557D01*
X415657Y-506480D01*
X415746Y-506430D01*
X435158Y-489851D01*
X435221Y-489771D01*
X435308Y-489718D01*
X454054Y-472389D01*
X454114Y-472307D01*
X454198Y-472250D01*
X472250Y-454198D01*
X472306Y-454114D01*
X472389Y-454054D01*
X489718Y-435308D01*
X489771Y-435221D01*
X489851Y-435158D01*
X506430Y-415746D01*
X506480Y-415657D01*
X506557Y-415591D01*
X522362Y-395543D01*
X522408Y-395452D01*
X522483Y-395383D01*
X537488Y-374730D01*
X537531Y-374638D01*
X537603Y-374566D01*
X551786Y-353340D01*
X551824Y-353246D01*
X551894Y-353171D01*
X565232Y-331404D01*
X565267Y-331309D01*
X565333Y-331232D01*
X577807Y-308958D01*
X577839Y-308861D01*
X577902Y-308781D01*
X589491Y-286035D01*
X589519Y-285937D01*
X589579Y-285855D01*
X600267Y-262671D01*
X600290Y-262572D01*
X600347Y-262488D01*
X610116Y-238902D01*
X610136Y-238803D01*
X610189Y-238716D01*
X619025Y-214765D01*
X619041Y-214665D01*
X619091Y-214576D01*
X626980Y-190297D01*
X626992Y-190196D01*
X627038Y-190105D01*
X633967Y-165535D01*
X633975Y-165434D01*
X634018Y-165341D01*
X639977Y-140518D01*
X639981Y-140416D01*
X640020Y-140322D01*
X645001Y-115284D01*
Y-115183D01*
X645036Y-115087D01*
X649029Y-89873D01*
X649025Y-89771D01*
X649057Y-89674D01*
X652057Y-64323D01*
X652049Y-64221D01*
X652077Y-64123D01*
X654080Y-38673D01*
X654068Y-38572D01*
X654092Y-38474D01*
X655094Y-12965D01*
X655078Y-12864D01*
X655098Y-12764D01*
Y0D01*
Y12764D01*
X655078Y12864D01*
X655094Y12965D01*
X654092Y38473D01*
X654068Y38572D01*
X654080Y38673D01*
X652077Y64123D01*
X652049Y64221D01*
X652057Y64323D01*
X649057Y89674D01*
X649025Y89771D01*
X649029Y89873D01*
X645036Y115087D01*
X645001Y115183D01*
Y115284D01*
X640020Y140322D01*
X639981Y140416D01*
X639977Y140518D01*
X634018Y165341D01*
X633975Y165434D01*
X633967Y165535D01*
X627038Y190105D01*
X626992Y190196D01*
X626980Y190297D01*
X619091Y214576D01*
X619041Y214665D01*
X619025Y214765D01*
X610189Y238716D01*
X610136Y238803D01*
X610116Y238902D01*
X600347Y262488D01*
X600290Y262572D01*
X600267Y262671D01*
X589579Y285855D01*
X589519Y285937D01*
X589491Y286035D01*
X577902Y308781D01*
X577839Y308861D01*
X577807Y308958D01*
X565333Y331232D01*
X565267Y331309D01*
X565232Y331404D01*
X551894Y353171D01*
X551824Y353246D01*
X551786Y353340D01*
X537603Y374566D01*
X537531Y374638D01*
X537488Y374730D01*
X522483Y395383D01*
X522408Y395452D01*
X522362Y395543D01*
X506557Y415591D01*
X506480Y415657D01*
X506430Y415746D01*
X489851Y435158D01*
X489771Y435221D01*
X489718Y435308D01*
X472389Y454054D01*
X472306Y454114D01*
X472250Y454198D01*
X454198Y472250D01*
X454114Y472306D01*
X454054Y472389D01*
X435308Y489718D01*
X435221Y489771D01*
X435158Y489851D01*
X415746Y506430D01*
X415657Y506480D01*
X415591Y506557D01*
X395543Y522362D01*
X395452Y522408D01*
X395383Y522483D01*
X374730Y537488D01*
X374638Y537531D01*
X374566Y537603D01*
X353340Y551786D01*
X353246Y551824D01*
X353171Y551894D01*
X331404Y565232D01*
X331309Y565267D01*
X331232Y565333D01*
X308958Y577807D01*
X308861Y577839D01*
X308781Y577902D01*
X286035Y589491D01*
X285937Y589519D01*
X285855Y589579D01*
X262671Y600267D01*
X262572Y600290D01*
X262488Y600347D01*
X238902Y610116D01*
X238803Y610136D01*
X238716Y610189D01*
X214765Y619025D01*
X214665Y619041D01*
X214576Y619091D01*
X190297Y626980D01*
X190196Y626992D01*
X190105Y627038D01*
X165535Y633967D01*
X165434Y633975D01*
X165341Y634018D01*
X140518Y639977D01*
X140416Y639981D01*
X140322Y640020D01*
X115284Y645001D01*
X115183D01*
X115087Y645036D01*
X89873Y649029D01*
X89771Y649025D01*
X89674Y649057D01*
X64323Y652057D01*
X64221Y652049D01*
X64123Y652077D01*
X38673Y654080D01*
X38572Y654068D01*
X38473Y654092D01*
X12965Y655094D01*
X12864Y655078D01*
X12764Y655098D01*
D02*
G37*
G36*
X623500Y646149D02*
X619081Y645714D01*
X614833Y644425D01*
X610917Y642332D01*
X607485Y639515D01*
X604668Y636083D01*
X602575Y632167D01*
X601286Y627919D01*
X600851Y623500D01*
X601286Y619081D01*
X602575Y614833D01*
X604668Y610917D01*
X607485Y607485D01*
X610917Y604668D01*
X614833Y602575D01*
X619081Y601286D01*
X623500Y600851D01*
X627919Y601286D01*
X632167Y602575D01*
X636083Y604668D01*
X639515Y607485D01*
X642332Y610917D01*
X644425Y614833D01*
X645714Y619081D01*
X646149Y623500D01*
X645714Y627919D01*
X644425Y632167D01*
X642332Y636083D01*
X639515Y639515D01*
X636083Y642332D01*
X632167Y644425D01*
X627919Y645714D01*
X623500Y646149D01*
D02*
G37*
G36*
X-623162Y645855D02*
X-627580Y645420D01*
X-631829Y644131D01*
X-635745Y642038D01*
X-639177Y639221D01*
X-641994Y635789D01*
X-644087Y631874D01*
X-645376Y627625D01*
X-645811Y623206D01*
X-645376Y618788D01*
X-644087Y614539D01*
X-641994Y610623D01*
X-639177Y607191D01*
X-635745Y604374D01*
X-631829Y602281D01*
X-627580Y600992D01*
X-623162Y600557D01*
X-618743Y600992D01*
X-614495Y602281D01*
X-610579Y604374D01*
X-607147Y607191D01*
X-604330Y610623D01*
X-602237Y614539D01*
X-600948Y618788D01*
X-600513Y623206D01*
X-600948Y627625D01*
X-602237Y631874D01*
X-604330Y635789D01*
X-607147Y639221D01*
X-610579Y642038D01*
X-614495Y644131D01*
X-618743Y645420D01*
X-623162Y645855D01*
D02*
G37*
G36*
X950000Y497649D02*
X945581Y497214D01*
X941333Y495925D01*
X937417Y493832D01*
X933985Y491015D01*
X931168Y487583D01*
X929075Y483667D01*
X927786Y479419D01*
X927351Y475000D01*
X927786Y470581D01*
X929075Y466333D01*
X931168Y462417D01*
X933985Y458985D01*
X937417Y456168D01*
X941333Y454075D01*
X945581Y452786D01*
X950000Y452351D01*
X954419Y452786D01*
X958667Y454075D01*
X962583Y456168D01*
X966015Y458985D01*
X968832Y462417D01*
X970925Y466333D01*
X972214Y470581D01*
X972649Y475000D01*
X972214Y479419D01*
X970925Y483667D01*
X968832Y487583D01*
X966015Y491015D01*
X962583Y493832D01*
X958667Y495925D01*
X954419Y497214D01*
X950000Y497649D01*
D02*
G37*
G36*
X-950000D02*
X-954419Y497214D01*
X-958667Y495925D01*
X-962583Y493832D01*
X-966015Y491015D01*
X-968832Y487583D01*
X-970925Y483667D01*
X-972214Y479419D01*
X-972649Y475000D01*
X-972214Y470581D01*
X-970925Y466333D01*
X-968832Y462417D01*
X-966015Y458985D01*
X-962583Y456168D01*
X-958667Y454075D01*
X-954419Y452786D01*
X-950000Y452351D01*
X-945581Y452786D01*
X-941333Y454075D01*
X-937417Y456168D01*
X-933985Y458985D01*
X-931168Y462417D01*
X-929075Y466333D01*
X-927786Y470581D01*
X-927351Y475000D01*
X-927786Y479419D01*
X-929075Y483667D01*
X-931168Y487583D01*
X-933985Y491015D01*
X-937417Y493832D01*
X-941333Y495925D01*
X-945581Y497214D01*
X-950000Y497649D01*
D02*
G37*
G36*
X950000Y22649D02*
X945581Y22214D01*
X941333Y20925D01*
X937417Y18832D01*
X933985Y16015D01*
X931168Y12583D01*
X929075Y8667D01*
X927786Y4419D01*
X927351Y0D01*
X927786Y-4419D01*
X929075Y-8667D01*
X931168Y-12583D01*
X933985Y-16015D01*
X937417Y-18832D01*
X941333Y-20925D01*
X945581Y-22214D01*
X950000Y-22649D01*
X954419Y-22214D01*
X958667Y-20925D01*
X962583Y-18832D01*
X966015Y-16015D01*
X968832Y-12583D01*
X970925Y-8667D01*
X972214Y-4419D01*
X972649Y0D01*
X972214Y4419D01*
X970925Y8667D01*
X968832Y12583D01*
X966015Y16015D01*
X962583Y18832D01*
X958667Y20925D01*
X954419Y22214D01*
X950000Y22649D01*
D02*
G37*
G36*
X-950000D02*
X-954419Y22214D01*
X-958667Y20925D01*
X-962583Y18832D01*
X-966015Y16015D01*
X-968832Y12583D01*
X-970925Y8667D01*
X-972214Y4419D01*
X-972649Y0D01*
X-972214Y-4419D01*
X-970925Y-8667D01*
X-968832Y-12583D01*
X-966015Y-16015D01*
X-962583Y-18832D01*
X-958667Y-20925D01*
X-954419Y-22214D01*
X-950000Y-22649D01*
X-945581Y-22214D01*
X-941333Y-20925D01*
X-937417Y-18832D01*
X-933985Y-16015D01*
X-931168Y-12583D01*
X-929075Y-8667D01*
X-927786Y-4419D01*
X-927351Y0D01*
X-927786Y4419D01*
X-929075Y8667D01*
X-931168Y12583D01*
X-933985Y16015D01*
X-937417Y18832D01*
X-941333Y20925D01*
X-945581Y22214D01*
X-950000Y22649D01*
D02*
G37*
G36*
X950000Y-452351D02*
X945581Y-452786D01*
X941333Y-454075D01*
X937417Y-456168D01*
X933985Y-458985D01*
X931168Y-462417D01*
X929075Y-466333D01*
X927786Y-470581D01*
X927351Y-475000D01*
X927786Y-479419D01*
X929075Y-483667D01*
X931168Y-487583D01*
X933985Y-491015D01*
X937417Y-493832D01*
X941333Y-495925D01*
X945581Y-497214D01*
X950000Y-497649D01*
X954419Y-497214D01*
X958667Y-495925D01*
X962583Y-493832D01*
X966015Y-491015D01*
X968832Y-487583D01*
X970925Y-483667D01*
X972214Y-479419D01*
X972649Y-475000D01*
X972214Y-470581D01*
X970925Y-466333D01*
X968832Y-462417D01*
X966015Y-458985D01*
X962583Y-456168D01*
X958667Y-454075D01*
X954419Y-452786D01*
X950000Y-452351D01*
D02*
G37*
G36*
X-950000D02*
X-954419Y-452786D01*
X-958667Y-454075D01*
X-962583Y-456168D01*
X-966015Y-458985D01*
X-968832Y-462417D01*
X-970925Y-466333D01*
X-972214Y-470581D01*
X-972649Y-475000D01*
X-972214Y-479419D01*
X-970925Y-483667D01*
X-968832Y-487583D01*
X-966015Y-491015D01*
X-962583Y-493832D01*
X-958667Y-495925D01*
X-954419Y-497214D01*
X-950000Y-497649D01*
X-945581Y-497214D01*
X-941333Y-495925D01*
X-937417Y-493832D01*
X-933985Y-491015D01*
X-931168Y-487583D01*
X-929075Y-483667D01*
X-927786Y-479419D01*
X-927351Y-475000D01*
X-927786Y-470581D01*
X-929075Y-466333D01*
X-931168Y-462417D01*
X-933985Y-458985D01*
X-937417Y-456168D01*
X-941333Y-454075D01*
X-945581Y-452786D01*
X-950000Y-452351D01*
D02*
G37*
G36*
X623500Y-600851D02*
X619081Y-601286D01*
X614833Y-602575D01*
X610917Y-604668D01*
X607485Y-607485D01*
X604668Y-610917D01*
X602575Y-614833D01*
X601286Y-619081D01*
X600851Y-623500D01*
X601286Y-627919D01*
X602575Y-632167D01*
X604668Y-636083D01*
X607485Y-639515D01*
X610917Y-642332D01*
X614833Y-644425D01*
X619081Y-645714D01*
X623500Y-646149D01*
X627919Y-645714D01*
X632167Y-644425D01*
X636083Y-642332D01*
X639515Y-639515D01*
X642332Y-636083D01*
X644425Y-632167D01*
X645714Y-627919D01*
X646149Y-623500D01*
X645714Y-619081D01*
X644425Y-614833D01*
X642332Y-610917D01*
X639515Y-607485D01*
X636083Y-604668D01*
X632167Y-602575D01*
X627919Y-601286D01*
X623500Y-600851D01*
D02*
G37*
G36*
X-623162Y-601145D02*
X-627580Y-601580D01*
X-631829Y-602869D01*
X-635745Y-604962D01*
X-639177Y-607779D01*
X-641994Y-611211D01*
X-644087Y-615126D01*
X-645376Y-619375D01*
X-645811Y-623794D01*
X-645376Y-628212D01*
X-644087Y-632461D01*
X-641994Y-636377D01*
X-639177Y-639809D01*
X-635745Y-642626D01*
X-631829Y-644719D01*
X-627580Y-646008D01*
X-623162Y-646443D01*
X-618743Y-646008D01*
X-614495Y-644719D01*
X-610579Y-642626D01*
X-607147Y-639809D01*
X-604330Y-636377D01*
X-602237Y-632461D01*
X-600948Y-628212D01*
X-600513Y-623794D01*
X-600948Y-619375D01*
X-602237Y-615126D01*
X-604330Y-611211D01*
X-607147Y-607779D01*
X-610579Y-604962D01*
X-614495Y-602869D01*
X-618743Y-601580D01*
X-623162Y-601145D01*
D02*
G37*
G36*
X950000Y-927351D02*
X945581Y-927786D01*
X941333Y-929075D01*
X937417Y-931168D01*
X933985Y-933985D01*
X931168Y-937417D01*
X929075Y-941333D01*
X927786Y-945581D01*
X927351Y-950000D01*
X927786Y-954419D01*
X929075Y-958667D01*
X931168Y-962583D01*
X933985Y-966015D01*
X937417Y-968832D01*
X941333Y-970925D01*
X945581Y-972214D01*
X950000Y-972649D01*
X954419Y-972214D01*
X958667Y-970925D01*
X962583Y-968832D01*
X966015Y-966015D01*
X968832Y-962583D01*
X970925Y-958667D01*
X972214Y-954419D01*
X972649Y-950000D01*
X972214Y-945581D01*
X970925Y-941333D01*
X968832Y-937417D01*
X966015Y-933985D01*
X962583Y-931168D01*
X958667Y-929075D01*
X954419Y-927786D01*
X950000Y-927351D01*
D02*
G37*
G36*
X-950000D02*
X-954419Y-927786D01*
X-958667Y-929075D01*
X-962583Y-931168D01*
X-966015Y-933985D01*
X-968832Y-937417D01*
X-970925Y-941333D01*
X-972214Y-945581D01*
X-972649Y-950000D01*
X-972214Y-954419D01*
X-970925Y-958667D01*
X-968832Y-962583D01*
X-966015Y-966015D01*
X-962583Y-968832D01*
X-958667Y-970925D01*
X-954419Y-972214D01*
X-950000Y-972649D01*
X-945581Y-972214D01*
X-941333Y-970925D01*
X-937417Y-968832D01*
X-933985Y-966015D01*
X-931168Y-962583D01*
X-929075Y-958667D01*
X-927786Y-954419D01*
X-927351Y-950000D01*
X-927786Y-945581D01*
X-929075Y-941333D01*
X-931168Y-937417D01*
X-933985Y-933985D01*
X-937417Y-931168D01*
X-941333Y-929075D01*
X-945581Y-927786D01*
X-950000Y-927351D01*
D02*
G37*
%LPD*%
D11*
X-623162Y623206D02*
D03*
Y-623794D02*
D03*
X623500Y-623500D02*
D03*
X950000Y-475000D02*
D03*
X-950000D02*
D03*
X623500Y623500D02*
D03*
X-950000Y475000D02*
D03*
X950000D02*
D03*
Y0D02*
D03*
X-950000D02*
D03*
Y-950000D02*
D03*
X950000D02*
D03*
Y950000D02*
D03*
X-950000D02*
D03*
M02*
