G04*
G04 #@! TF.GenerationSoftware,Altium Limited,Altium Designer,25.7.1 (20)*
G04*
G04 Layer_Physical_Order=1*
G04 Layer_Color=255*
%FSLAX44Y44*%
%MOMM*%
G71*
G04*
G04 #@! TF.SameCoordinates,32F418BE-E214-40C2-94E0-C7E2AA208B06*
G04*
G04*
G04 #@! TF.FilePolarity,Positive*
G04*
G01*
G75*
%ADD11C,4.0000*%
G36*
X994902Y-994902D02*
X-994902D01*
Y994902D01*
X994902D01*
Y-994902D01*
D02*
G37*
%LPC*%
G36*
X960000Y982649D02*
X955581Y982214D01*
X951333Y980925D01*
X947417Y978832D01*
X943985Y976015D01*
X941168Y972583D01*
X939075Y968667D01*
X937786Y964419D01*
X937351Y960000D01*
X937786Y955581D01*
X939075Y951333D01*
X941168Y947417D01*
X943985Y943985D01*
X947417Y941168D01*
X951333Y939075D01*
X955581Y937786D01*
X960000Y937351D01*
X964419Y937786D01*
X968667Y939075D01*
X972583Y941168D01*
X976015Y943985D01*
X978832Y947417D01*
X980925Y951333D01*
X982214Y955581D01*
X982649Y960000D01*
X982214Y964419D01*
X980925Y968667D01*
X978832Y972583D01*
X976015Y976015D01*
X972583Y978832D01*
X968667Y980925D01*
X964419Y982214D01*
X960000Y982649D01*
D02*
G37*
G36*
X-960000D02*
X-964419Y982214D01*
X-968667Y980925D01*
X-972583Y978832D01*
X-976015Y976015D01*
X-978832Y972583D01*
X-980925Y968667D01*
X-982214Y964419D01*
X-982649Y960000D01*
X-982214Y955581D01*
X-980925Y951333D01*
X-978832Y947417D01*
X-976015Y943985D01*
X-972583Y941168D01*
X-968667Y939075D01*
X-964419Y937786D01*
X-960000Y937351D01*
X-955581Y937786D01*
X-951333Y939075D01*
X-947417Y941168D01*
X-943985Y943985D01*
X-941168Y947417D01*
X-939075Y951333D01*
X-937786Y955581D01*
X-937351Y960000D01*
X-937786Y964419D01*
X-939075Y968667D01*
X-941168Y972583D01*
X-943985Y976015D01*
X-947417Y978832D01*
X-951333Y980925D01*
X-955581Y982214D01*
X-960000Y982649D01*
D02*
G37*
G36*
X960000Y522649D02*
X955581Y522214D01*
X951333Y520925D01*
X947417Y518832D01*
X943985Y516015D01*
X941168Y512583D01*
X939075Y508667D01*
X937786Y504419D01*
X937351Y500000D01*
X937786Y495581D01*
X939075Y491333D01*
X941168Y487417D01*
X943985Y483985D01*
X947417Y481168D01*
X951333Y479075D01*
X955581Y477786D01*
X960000Y477351D01*
X964419Y477786D01*
X968667Y479075D01*
X972583Y481168D01*
X976015Y483985D01*
X978832Y487417D01*
X980925Y491333D01*
X982214Y495581D01*
X982649Y500000D01*
X982214Y504419D01*
X980925Y508667D01*
X978832Y512583D01*
X976015Y516015D01*
X972583Y518832D01*
X968667Y520925D01*
X964419Y522214D01*
X960000Y522649D01*
D02*
G37*
G36*
X-960000D02*
X-964419Y522214D01*
X-968668Y520925D01*
X-972583Y518832D01*
X-976015Y516015D01*
X-978832Y512583D01*
X-980925Y508667D01*
X-982214Y504419D01*
X-982649Y500000D01*
X-982214Y495581D01*
X-980925Y491333D01*
X-978832Y487417D01*
X-976015Y483985D01*
X-972583Y481168D01*
X-968668Y479075D01*
X-964419Y477786D01*
X-960000Y477351D01*
X-955581Y477786D01*
X-951333Y479075D01*
X-947417Y481168D01*
X-943985Y483985D01*
X-941168Y487417D01*
X-939075Y491333D01*
X-937786Y495581D01*
X-937351Y500000D01*
X-937786Y504419D01*
X-939075Y508667D01*
X-941168Y512583D01*
X-943985Y516015D01*
X-947417Y518832D01*
X-951333Y520925D01*
X-955581Y522214D01*
X-960000Y522649D01*
D02*
G37*
G36*
X960000Y22649D02*
X955581Y22214D01*
X951333Y20925D01*
X947417Y18832D01*
X943985Y16015D01*
X941168Y12583D01*
X939075Y8667D01*
X937786Y4419D01*
X937351Y0D01*
X937786Y-4419D01*
X939075Y-8667D01*
X941168Y-12583D01*
X943985Y-16015D01*
X947417Y-18832D01*
X951333Y-20925D01*
X955581Y-22214D01*
X960000Y-22649D01*
X964419Y-22214D01*
X968667Y-20925D01*
X972583Y-18832D01*
X976015Y-16015D01*
X978832Y-12583D01*
X980925Y-8667D01*
X982214Y-4419D01*
X982649Y0D01*
X982214Y4419D01*
X980925Y8667D01*
X978832Y12583D01*
X976015Y16015D01*
X972583Y18832D01*
X968667Y20925D01*
X964419Y22214D01*
X960000Y22649D01*
D02*
G37*
G36*
X-960000D02*
X-964419Y22214D01*
X-968668Y20925D01*
X-972583Y18832D01*
X-976015Y16015D01*
X-978832Y12583D01*
X-980925Y8667D01*
X-982214Y4419D01*
X-982649Y0D01*
X-982214Y-4419D01*
X-980925Y-8667D01*
X-978832Y-12583D01*
X-976015Y-16015D01*
X-972583Y-18832D01*
X-968668Y-20925D01*
X-964419Y-22214D01*
X-960000Y-22649D01*
X-955581Y-22214D01*
X-951333Y-20925D01*
X-947417Y-18832D01*
X-943985Y-16015D01*
X-941168Y-12583D01*
X-939075Y-8667D01*
X-937786Y-4419D01*
X-937351Y0D01*
X-937786Y4419D01*
X-939075Y8667D01*
X-941168Y12583D01*
X-943985Y16015D01*
X-947417Y18832D01*
X-951333Y20925D01*
X-955581Y22214D01*
X-960000Y22649D01*
D02*
G37*
G36*
X960000Y-477351D02*
X955581Y-477786D01*
X951333Y-479075D01*
X947417Y-481168D01*
X943985Y-483985D01*
X941168Y-487417D01*
X939075Y-491333D01*
X937786Y-495581D01*
X937351Y-500000D01*
X937786Y-504419D01*
X939075Y-508667D01*
X941168Y-512583D01*
X943985Y-516015D01*
X947417Y-518832D01*
X951333Y-520925D01*
X955581Y-522214D01*
X960000Y-522649D01*
X964419Y-522214D01*
X968667Y-520925D01*
X972583Y-518832D01*
X976015Y-516015D01*
X978832Y-512583D01*
X980925Y-508667D01*
X982214Y-504419D01*
X982649Y-500000D01*
X982214Y-495581D01*
X980925Y-491333D01*
X978832Y-487417D01*
X976015Y-483985D01*
X972583Y-481168D01*
X968667Y-479075D01*
X964419Y-477786D01*
X960000Y-477351D01*
D02*
G37*
G36*
X-960000D02*
X-964419Y-477786D01*
X-968668Y-479075D01*
X-972583Y-481168D01*
X-976015Y-483985D01*
X-978832Y-487417D01*
X-980925Y-491333D01*
X-982214Y-495581D01*
X-982649Y-500000D01*
X-982214Y-504419D01*
X-980925Y-508667D01*
X-978832Y-512583D01*
X-976015Y-516015D01*
X-972583Y-518832D01*
X-968668Y-520925D01*
X-964419Y-522214D01*
X-960000Y-522649D01*
X-955581Y-522214D01*
X-951333Y-520925D01*
X-947417Y-518832D01*
X-943985Y-516015D01*
X-941168Y-512583D01*
X-939075Y-508667D01*
X-937786Y-504419D01*
X-937351Y-500000D01*
X-937786Y-495581D01*
X-939075Y-491333D01*
X-941168Y-487417D01*
X-943985Y-483985D01*
X-947417Y-481168D01*
X-951333Y-479075D01*
X-955581Y-477786D01*
X-960000Y-477351D01*
D02*
G37*
G36*
X960000Y-937351D02*
X955581Y-937786D01*
X951333Y-939075D01*
X947417Y-941168D01*
X943985Y-943985D01*
X941168Y-947417D01*
X939075Y-951333D01*
X937786Y-955581D01*
X937351Y-960000D01*
X937786Y-964419D01*
X939075Y-968667D01*
X941168Y-972583D01*
X943985Y-976015D01*
X947417Y-978832D01*
X951333Y-980925D01*
X955581Y-982214D01*
X960000Y-982649D01*
X964419Y-982214D01*
X968667Y-980925D01*
X972583Y-978832D01*
X976015Y-976015D01*
X978832Y-972583D01*
X980925Y-968667D01*
X982214Y-964419D01*
X982649Y-960000D01*
X982214Y-955581D01*
X980925Y-951333D01*
X978832Y-947417D01*
X976015Y-943985D01*
X972583Y-941168D01*
X968667Y-939075D01*
X964419Y-937786D01*
X960000Y-937351D01*
D02*
G37*
G36*
X-960000D02*
X-964419Y-937786D01*
X-968667Y-939075D01*
X-972583Y-941168D01*
X-976015Y-943985D01*
X-978832Y-947417D01*
X-980925Y-951333D01*
X-982214Y-955581D01*
X-982649Y-960000D01*
X-982214Y-964419D01*
X-980925Y-968667D01*
X-978832Y-972583D01*
X-976015Y-976015D01*
X-972583Y-978832D01*
X-968667Y-980925D01*
X-964419Y-982214D01*
X-960000Y-982649D01*
X-955581Y-982214D01*
X-951333Y-980925D01*
X-947417Y-978832D01*
X-943985Y-976015D01*
X-941168Y-972583D01*
X-939075Y-968667D01*
X-937786Y-964419D01*
X-937351Y-960000D01*
X-937786Y-955581D01*
X-939075Y-951333D01*
X-941168Y-947417D01*
X-943985Y-943985D01*
X-947417Y-941168D01*
X-951333Y-939075D01*
X-955581Y-937786D01*
X-960000Y-937351D01*
D02*
G37*
%LPD*%
D11*
X-960000Y-500000D02*
D03*
X960000D02*
D03*
X-960000Y500000D02*
D03*
X960000D02*
D03*
Y0D02*
D03*
X-960000D02*
D03*
X-960000Y-960000D02*
D03*
X960000D02*
D03*
Y960000D02*
D03*
X-960000D02*
D03*
M02*
